<svg data-v-0dd9719b="" version="1.0" xmlns="http://www.w3.org/2000/svg" xmlns:xlink="http://www.w3.org/1999/xlink"
    width="100%" height="100%" viewBox="0 0 340.000000 250.000000" preserveAspectRatio="xMidYMid meet"
    color-interpolation-filters="sRGB" style="margin: auto;">
    <rect data-v-0dd9719b="" x="0" y="0" width="100%" height="100%" fill="#fff" fill-opacity="1" class="background">
    </rect>
    <rect data-v-0dd9719b="" x="0" y="0" width="100%" height="100%" fill="url(#watermark)" fill-opacity="1"
        class="watermarklayer"></rect>
    <g data-v-0dd9719b="" fill="#333" class="icon-text-wrapper icon-svg-group iconsvg"
        transform="translate(80.31000518798828,79.73832702636719)">
        <g class="iconsvg-imagesvg" transform="translate(59.68999481201172,0)">
            <g>
                <rect fill="#333" fill-opacity="0" stroke-width="2" x="0" y="0" width="60" height="60.75334143377886"
                    class="image-rect"></rect> <svg x="0" y="0" width="60" height="60.75334143377886"
                    filtersec="colorsb491199280" class="image-svg-svg primary" style="overflow: visible;"><svg
                        xmlns="http://www.w3.org/2000/svg" viewBox="0 0 98.76000213623047 99.99999237060547">
                        <path
                            d="M34.58 88.23l1.89-4.66v-.06l1.26-3.07.27-.64 8.87-21.86-24.06 3.17 31.26-42.66.46-.62 2.17-3L58.81 12l2.34-3.2c-1.29-.39-2.6-.71-3.94-1l-.41-.08L52.94 0h-7.12L42 7.73a43.06 43.06 0 0 0-6.12 1.64l-7.26-4.76-7.24 4.18.52 8.63a44.06 44.06 0 0 0-4.48 4.48l-8.63-.52-4.18 7.24 4.75 7.2A43.66 43.66 0 0 0 7.73 42L0 45.82v8.36L7.73 58a43.17 43.17 0 0 0 1.63 6.13l-4.75 7.25 4.18 7.24 8.63-.52a43.06 43.06 0 0 0 4.48 4.48l-.52 8.63 6 3.47.42.25.81.46 4.18-2.76zM17.07 65.65c-.3-.62-.59-1.25-.85-1.89a35.9 35.9 0 0 1 33.16-49.65c1 0 2.09 0 3.12.13l-2.34 3.19h-.78a32.61 32.61 0 0 0-30.83 43.14 32.21 32.21 0 0 0 2 4.62 32.73 32.73 0 0 0 13.77 13.7L33.06 82a36.06 36.06 0 0 1-15.99-16.35z"
                            fill="#2e2e8a"></path>
                        <path
                            d="M98.76 54.18v-8.36L91 42a43.69 43.69 0 0 0-1.64-6.14l4.76-7.2L90 21.38l-8.64.52a43 43 0 0 0-4.47-4.48l.52-8.63-7.27-4.18-1.14.73L63.46 9l-.16.38-1.44 3.48-1.25 3L59.34 19l-.26.64-9.7 23.52L76 38.89 43.55 81.36l-.46.61-2.22 2.91-.07.1-2.07 2.7-2.38 3.13q1 .33 1.95.6a45.629 45.629 0 0 0 3.65.87l.73 1.45 3.14 6.27h7.12l3.14-6.27.72-1.45q1.86-.36 3.66-.87c.83-.23 1.66-.49 2.47-.78L65 92l5.12 3.38 1.23-.71 6-3.47-.52-8.63a43.06 43.06 0 0 0 4.48-4.48l8.63.52 4.18-7.24-4.76-7.21A43.19 43.19 0 0 0 91 58zM49.38 85.9a34.84 34.84 0 0 1-4.38-.27l2.38-3.11q1 .06 2 .06a32.58 32.58 0 0 0 13.47-62.25l1.26-3.07A36 36 0 0 1 81.6 34.19c.36.71.69 1.44 1 2.18A35.92 35.92 0 0 1 49.38 85.9z"
                            fill="#f6921d"></path>
                    </svg></svg>
                <!---->
            </g>
        </g>
        <g transform="translate(0,67.75334167480469)">
            <g data-gra="path-name" fill-rule="" class="tp-name iconsvg-namesvg">
                <g transform="scale(1)">
                    <g>
                        <path
                            d="M16.26-8.05L16.26-8.05Q16.26-5.97 15.54-4.42 14.82-2.87 13.57-1.84 12.32-0.82 10.65-0.3 8.98 0.21 7.06 0.21L7.06 0.21Q6.32 0.21 5.44 0.02 4.55-0.18 3.64-0.48 2.74-0.77 1.9-1.11 1.06-1.45 0.41-1.75L0.41-1.75 1.07-7.98Q2.36-7.21 3.92-6.81 5.49-6.41 7-6.41L7-6.41Q7.29-6.41 7.7-6.43 8.11-6.46 8.48-6.57 8.85-6.68 9.1-6.91 9.36-7.14 9.36-7.56L9.36-7.56Q9.36-7.85 9.18-8.05 9-8.26 8.71-8.39 8.42-8.51 8.06-8.58 7.7-8.65 7.35-8.68 7-8.71 6.7-8.71 6.4-8.71 6.22-8.71L6.22-8.71Q4.91-8.71 3.85-9.16 2.78-9.62 2.02-10.43 1.26-11.24 0.83-12.35 0.41-13.46 0.41-14.76L0.41-14.76Q0.41-16.54 1.13-17.96 1.84-19.37 3.05-20.36 4.25-21.35 5.81-21.88 7.36-22.41 9.03-22.41L9.03-22.41Q9.77-22.41 10.56-22.36 11.34-22.31 12.12-22.17 12.9-22.03 13.64-21.82 14.38-21.61 15.05-21.29L15.05-21.29 14.47-15.15Q13.44-15.5 12.32-15.73 11.19-15.97 10.12-15.97L10.12-15.97Q9.92-15.97 9.61-15.96 9.3-15.95 8.96-15.92 8.62-15.88 8.27-15.8 7.92-15.73 7.65-15.6 7.38-15.47 7.21-15.26 7.05-15.05 7.06-14.76L7.06-14.76Q7.08-14.43 7.31-14.22 7.55-14.02 7.92-13.9 8.29-13.79 8.73-13.75 9.18-13.7 9.62-13.69 10.06-13.69 10.43-13.69 10.81-13.7 11.05-13.67L11.05-13.67Q12.26-13.59 13.23-13.16 14.2-12.72 14.87-11.99 15.55-11.27 15.9-10.26 16.26-9.25 16.26-8.05ZM43.64-10.25L43.64-10.25Q43.64-8.09 43.51-5.94 43.37-3.8 43.19-1.63L43.19-1.63 35.42-1.27Q35.76-3.9 36.04-6.54 36.32-9.18 36.32-11.83L36.32-11.83Q36.32-11.99 36.31-12.41 36.29-12.82 36.26-13.35 36.22-13.88 36.15-14.45 36.08-15.02 35.97-15.49 35.85-15.97 35.69-16.27 35.52-16.57 35.3-16.57L35.3-16.57Q34.77-16.57 34.46-16.17 34.16-15.77 34.02-15.21 33.87-14.65 33.84-14.07 33.81-13.49 33.81-13.13L33.81-13.13Q33.81-12.49 33.84-11.86 33.87-11.22 33.87-10.56L33.87-10.56Q33.87-8.21 33.76-5.88 33.65-3.55 33.48-1.21L33.48-1.21 26.31-0.94Q26.66-3.57 26.93-6.19 27.19-8.82 27.19-11.46L27.19-11.46Q27.19-11.63 27.17-12.07 27.16-12.51 27.12-13.05 27.08-13.59 27.01-14.18 26.93-14.77 26.82-15.27 26.71-15.76 26.54-16.07 26.37-16.39 26.13-16.39L26.13-16.39Q25.75-16.39 25.5-16.1 25.24-15.8 25.08-15.33 24.92-14.87 24.84-14.3 24.76-13.73 24.72-13.19 24.68-12.64 24.67-12.18 24.66-11.72 24.65-11.49L24.65-11.49 24.32-0.45 16.69-0.45Q16.94-3.01 17.19-5.58 17.44-8.15 17.62-10.71 17.81-13.28 17.93-15.85 18.06-18.42 18.06-20.99L18.06-20.99 25.25-21.29 25.22-19.54Q25.56-19.96 25.98-20.39 26.4-20.82 26.88-21.16 27.36-21.5 27.89-21.72 28.43-21.93 29-21.93L29-21.93Q29.75-21.93 30.34-21.81 30.92-21.7 31.4-21.43 31.88-21.16 32.24-20.68 32.6-20.2 32.88-19.48L32.88-19.48Q33.36-20.01 33.85-20.46 34.34-20.91 34.89-21.24 35.43-21.56 36.07-21.75 36.7-21.93 37.47-21.93L37.47-21.93Q38.94-21.93 39.97-21.36 41-20.79 41.68-19.86 42.37-18.92 42.76-17.71 43.14-16.5 43.34-15.2 43.54-13.9 43.59-12.61 43.64-11.33 43.64-10.25ZM58.19-21.66L64.09-1.3 56.59-0.33 55.68-3.75 52.23-3.75 51.48-0.33 43.76-1.09 49.78-21.23 58.19-21.66ZM52.87-8.38L55.14-8.38 53.99-13.64 52.87-8.38ZM82.13-14.58L82.13-14.58Q82.13-13.4 81.92-12.44 81.72-11.48 81.28-10.68 80.84-9.87 80.15-9.19 79.45-8.51 78.47-7.89L78.47-7.89 82.07-1.48 75.26-0.15 72.93-6.59 71.06-6.53 70.79-0.24 64.28-0.24Q64.36-3.69 64.43-7.11 64.5-10.53 64.59-13.97L64.59-13.97Q64.62-15.71 64.65-17.42 64.68-19.13 64.77-20.87L64.77-20.87Q65.83-21.26 66.86-21.52 67.88-21.78 68.92-21.92 69.96-22.06 71.02-22.12 72.09-22.17 73.21-22.17L73.21-22.17Q74.93-22.17 76.54-21.69 78.15-21.22 79.39-20.26 80.63-19.31 81.38-17.89 82.13-16.47 82.13-14.58ZM75.35-14.09L75.35-14.09Q75.35-14.73 75.18-15.26 75.01-15.79 74.67-16.17 74.33-16.56 73.82-16.78 73.31-17 72.63-17L72.63-17Q72.33-17 72.04-16.96 71.76-16.92 71.48-16.85L71.48-16.85 71.24-11.22 71.6-11.22Q72.25-11.22 72.93-11.39 73.6-11.55 74.14-11.9 74.67-12.25 75.01-12.79 75.35-13.34 75.35-14.09ZM82.7-21.29L99.19-21.32 99.04-14.91 94.53-14.73 93.98-0.7 87.6-0.36 87.03-14.4 82.52-14.15 82.7-21.29ZM117.65-5.38L117.65-5.38Q117.65-4.13 117.19-3.22 116.73-2.31 115.96-1.68 115.19-1.04 114.18-0.64 113.17-0.24 112.09-0.02 111 0.21 109.9 0.29 108.8 0.36 107.85 0.36L107.85 0.36Q106.91 0.36 105.91 0.29 104.9 0.23 103.9 0.06 102.91-0.11 101.94-0.39 100.97-0.67 100.11-1.09L100.11-1.09 100.08-20.57Q100.93-20.91 101.88-21.19 102.83-21.47 103.82-21.66 104.81-21.85 105.8-21.95 106.78-22.05 107.7-22.05L107.7-22.05Q108.77-22.05 109.87-21.91 110.97-21.78 111.98-21.46 112.99-21.14 113.87-20.63 114.75-20.13 115.41-19.39 116.06-18.65 116.43-17.66 116.8-16.68 116.8-15.39L116.8-15.39Q116.8-14.55 116.56-13.81 116.32-13.07 115.87-12.48 115.41-11.89 114.76-11.47 114.11-11.05 113.3-10.86L113.3-10.86Q114.28-10.6 115.09-10.1 115.9-9.6 116.46-8.89 117.03-8.18 117.34-7.29 117.65-6.4 117.65-5.38ZM109.97-14L109.97-14Q109.97-14.44 109.79-14.75 109.61-15.06 109.34-15.26 109.08-15.45 108.77-15.55 108.46-15.64 108.21-15.64L108.21-15.64Q107.91-15.64 107.62-15.55 107.34-15.45 107.07-15.33L107.07-15.33 106.97-11.98Q107.32-11.98 107.84-12.04 108.35-12.1 108.83-12.3 109.3-12.51 109.64-12.91 109.97-13.31 109.97-14ZM107.82-9.07L107.82-9.07Q107.38-9.07 106.97-8.98L106.97-8.98 106.91-5.53Q107.14-5.49 107.36-5.45 107.58-5.41 107.79-5.41L107.79-5.41Q108.11-5.41 108.49-5.48 108.86-5.55 109.2-5.75 109.53-5.96 109.75-6.31 109.97-6.65 109.97-7.23L109.97-7.23Q109.97-7.8 109.75-8.17 109.53-8.53 109.21-8.73 108.9-8.94 108.52-9.01 108.14-9.07 107.82-9.07ZM136.18-14.58L136.18-14.58Q136.18-13.4 135.97-12.44 135.77-11.48 135.33-10.68 134.89-9.87 134.19-9.19 133.5-8.51 132.52-7.89L132.52-7.89 136.12-1.48 129.31-0.15 126.98-6.59 125.11-6.53 124.83-0.24 118.33-0.24Q118.41-3.69 118.48-7.11 118.54-10.53 118.63-13.97L118.63-13.97Q118.66-15.71 118.69-17.42 118.72-19.13 118.82-20.87L118.82-20.87Q119.87-21.26 120.9-21.52 121.93-21.78 122.97-21.92 124-22.06 125.07-22.12 126.13-22.17 127.25-22.17L127.25-22.17Q128.98-22.17 130.59-21.69 132.2-21.22 133.44-20.26 134.68-19.31 135.43-17.89 136.18-16.47 136.18-14.58ZM129.4-14.09L129.4-14.09Q129.4-14.73 129.23-15.26 129.05-15.79 128.71-16.17 128.37-16.56 127.87-16.78 127.36-17 126.68-17L126.68-17Q126.38-17 126.09-16.96 125.8-16.92 125.53-16.85L125.53-16.85 125.29-11.22 125.65-11.22Q126.3-11.22 126.97-11.39 127.65-11.55 128.18-11.9 128.72-12.25 129.06-12.79 129.4-13.34 129.4-14.09ZM137.07-20.87L145.11-21.29 144.05-0.7 137.67-0.36 137.07-20.87ZM145.87-21.29L162.35-21.32 162.2-14.91 157.69-14.73 157.15-0.7 150.77-0.36 150.19-14.4 145.69-14.15 145.87-21.29ZM179.79-12.22L179.79-12.22Q179.79-10.9 179.61-9.59L179.61-9.59Q177.02-9.42 174.47-9.05 171.91-8.68 169.35-8.32L169.35-8.32Q169.75-7.23 170.59-6.58 171.43-5.93 172.59-5.93L172.59-5.93Q173.19-5.93 173.91-6.15 174.63-6.38 175.34-6.72 176.05-7.06 176.7-7.46 177.35-7.85 177.82-8.17L177.82-8.17 177.1-1.3Q176.51-0.85 175.82-0.53 175.13-0.21 174.39-0.02 173.65 0.18 172.89 0.27 172.14 0.36 171.41 0.36L171.41 0.36Q169.91 0.36 168.67-0.05 167.43-0.45 166.43-1.19 165.42-1.92 164.67-2.92 163.91-3.92 163.41-5.1 162.91-6.28 162.65-7.59 162.4-8.91 162.4-10.25L162.4-10.25Q162.4-11.66 162.65-13.07 162.91-14.47 163.43-15.77 163.96-17.07 164.75-18.18 165.54-19.3 166.6-20.13 167.66-20.96 169-21.43 170.34-21.9 171.95-21.9L171.95-21.9Q173.3-21.9 174.41-21.53 175.52-21.16 176.39-20.5 177.26-19.84 177.91-18.93 178.55-18.03 178.96-16.94 179.38-15.86 179.58-14.66 179.79-13.46 179.79-12.22ZM173.74-12.67L173.74-13.01Q173.74-13.43 173.65-13.87 173.56-14.32 173.35-14.68 173.15-15.05 172.82-15.28 172.48-15.52 171.99-15.52L171.99-15.52Q171.38-15.52 170.92-15.19 170.46-14.87 170.13-14.37 169.79-13.88 169.58-13.31 169.37-12.73 169.26-12.25L169.26-12.25 173.74-12.67Z"
                            transform="translate(-0.4099999964237213, 22.40999984741211)"></path>
                    </g>
                    <!---->
                    <!---->
                    <!---->
                    <!---->
                    <!---->
                    <!---->
                    <!---->
                </g>
            </g>
            <!---->
        </g>
    </g>
    <defs v-gra="od"></defs>
</svg>