<svg data-v-0dd9719b="" version="1.0" xmlns="http://www.w3.org/2000/svg" xmlns:xlink="http://www.w3.org/1999/xlink"
    width="100%" height="100%" viewBox="0 0 340.000000 250.000000" preserveAspectRatio="xMidYMid meet"
    color-interpolation-filters="sRGB" style="margin: auto;">
    <rect data-v-0dd9719b="" x="0" y="0" width="100%" height="100%" fill="#ffffff" fill-opacity="1" class="background">
    </rect>
    <rect data-v-0dd9719b="" x="0" y="0" width="100%" height="100%" fill="url(#watermark)" fill-opacity="1"
        class="watermarklayer"></rect>
    <g data-v-0dd9719b="" fill="#343c3e" class="icon-text-wrapper icon-svg-group iconsvg"
        transform="translate(79.14499665796757,72.34139251708984)">
        <g class="iconsvg-imagesvg" transform="translate(60.855003356933594,0)">
            <g>
                <rect fill="#343c3e" fill-opacity="0" stroke-width="2" x="0" y="0" width="60"
                    height="63.797209935352164" class="image-rect"></rect> <svg filter="url(#colors7526097431)" x="0"
                    y="0" width="60" height="63.797209935352164" filtersec="colorsf5834159390"
                    class="image-svg-svg primary" style="overflow: visible;"><svg
                        xmlns:dc="http://purl.org/dc/elements/1.1/" xmlns:cc="http://creativecommons.org/ns#"
                        xmlns:rdf="http://www.w3.org/1999/02/22-rdf-syntax-ns#" xmlns:svg="http://www.w3.org/2000/svg"
                        xmlns="http://www.w3.org/2000/svg"
                        xmlns:sodipodi="http://sodipodi.sourceforge.net/DTD/sodipodi-0.dtd"
                        xmlns:inkscape="http://www.inkscape.org/namespaces/inkscape" version="1.1" x="0px" y="0px"
                        viewBox="10.499988555908203 8 79 84">
                        <g transform="translate(0,-952.36218)">
                            <path
                                d="m 58.109862,961.87365 -2.05049,7.73058 c -0.26867,1.01611 0.40478,2.18688 1.41348,2.45732 1.00871,0.27042 2.17072,-0.40826 2.43895,-1.42448 l 2.05049,-7.73059 c 0.29637,-1.01598 -0.41415,-2.16254 -1.3892,-2.48151 -1.15298,-0.31682 -1.97846,0.627 -2.46323,1.44868 z m -18.29908,-1.50225 c -1.16971,0.086 -2.08537,1.3969 -1.77088,2.53513 l 2.05049,7.73059 c 0.26823,1.01622 1.43025,1.6949 2.43896,1.42448 1.0087,-0.27044 1.68215,-1.44121 1.41348,-2.45732 l -2.05049,-7.73058 c -0.2291,-0.90524 -1.15703,-1.57495 -2.08156,-1.5023 z m 30.57095,16.36881 c -0.74015,0.74563 -0.74015,2.10248 0,2.84811 0.74016,0.74563 2.08704,0.74563 2.82719,0 l 5.62332,-5.66492 c 0.79002,-1.19036 0.7087,-1.96378 -0.0139,-2.94299 -0.93417,-0.69734 -1.70804,-0.58142 -2.66961,0.005 -1.96042,1.84808 -3.85817,3.83184 -5.76698,5.75479 z m -49.16513,-5.7469 c -0.93338,0.91341 -0.53166,2.07686 -0.0466,2.92999 l 5.62331,5.66492 c 0.74016,0.74563 2.08704,0.74563 2.82719,0 0.74016,-0.74563 0.74016,-2.10248 0,-2.84811 l -5.62331,-5.66492 c -1.05878,-0.58524 -1.83303,-0.82649 -2.78057,-0.0818 z m 28.7845,7.09271 c -12.05593,0 -21.8719,9.8886 -21.8719,22.03378 0,5.6753 2.80668,9.8753 5.28157,13.7398 2.47488,3.8644 4.6602,7.3985 4.6602,12.3 -4.6e-4,4.6564 0,9.3518 0,14.0215 -10e-6,1.0488 0.94725,2.0031 1.98836,2.0031 l 6.15147,0 c 0.80884,0.9988 1.80194,2.178 2.79612,2.178 l 1.98836,0 c 0.99417,0 1.83476,-1.2608 2.76505,-2.178 l 6.18254,0 c 1.0411,0 1.98837,-0.9543 1.98836,-2.0031 0,-4.9591 0,-9.944 0,-14.2093 0.0821,-4.7594 2.25394,-8.2518 4.69127,-12.081 2.46922,-3.8792 5.2505,-8.0999 5.2505,-13.771 0,-12.14518 -9.81597,-22.03378 -21.8719,-22.03378 z m 0,4.00613 c 9.90682,0 17.89519,8.04749 17.89519,18.02765 0,4.3441 -2.14298,7.7057 -4.62914,11.6115 -2.19606,3.4501 -4.53384,7.3845 -5.09516,12.4253 l -2.20583,0 0,-21.4078 c 0.97132,-0.1049 1.97241,-0.3837 2.95147,-0.845 2.80306,-1.3209 4.24788,-3.67023 3.16894,-5.19552 -1.07894,-1.52528 -4.28045,-1.69646 -7.08352,-0.37557 -1.52893,0.72048 -2.64087,1.74984 -3.16894,2.78551 l -3.66603,0 c -0.52806,-1.03567 -1.64,-2.06503 -3.16894,-2.78551 -2.80306,-1.32089 -6.00458,-1.14971 -7.08351,0.37557 -1.07894,1.52529 0.36588,3.87462 3.16894,5.19552 0.97906,0.4613 1.98014,0.7401 2.95146,0.845 0,7.1359 0,14.2718 0,21.4078 l -2.20583,0 c -0.53885,-5.0745 -2.85959,-9.0456 -5.06409,-12.4879 -2.496,-3.8974 -4.6602,-7.209 -4.6602,-11.5489 0,-9.98016 7.98837,-18.02765 17.89519,-18.02765 z m 37.28165,5.91526 c -2.65301,0.63796 -5.35478,1.41202 -8.01556,2.12826 -1.00876,0.27021 -1.68245,1.44083 -1.41402,2.457 0.26845,1.01617 1.43062,1.6946 2.43927,1.42394 l 7.6738,-2.06566 c 1.38166,-0.75204 1.66705,-1.44731 1.48411,-2.71757 -0.67634,-0.95708 -1.23709,-1.24779 -2.1676,-1.22597 z m -74.99825,0 c -0.9263,0.096 -1.72196,0.92962 -1.78096,1.86581 -0.059,0.93619 0.62562,1.86443 1.53241,2.07773 l 7.67381,2.06566 c 1.00864,0.27066 2.17082,-0.40777 2.43926,-1.42394 0.26844,-1.01617 -0.40525,-2.18679 -1.41401,-2.457 -2.7977,-0.53257 -5.67617,-1.90467 -8.45051,-2.12826 z m 35.72824,15.11699 3.97671,0 0,21.0322 -3.97671,0 z m -27.77482,3.0046 c -2.7091,0.5964 -5.48342,1.4277 -8.20197,2.1595 -1.00876,0.2702 -1.68245,1.4408 -1.41401,2.457 0.26844,1.0161 1.43062,1.6946 2.43926,1.4239 l 7.67381,-2.0656 c 1.02369,-0.1423 1.83033,-1.202 1.70115,-2.2349 -0.5327,-1.009 -1.24098,-1.8173 -2.19824,-1.7399 z m 59.24675,0.031 c -0.92339,0.1058 -1.7092,0.9445 -1.76076,1.8793 -0.0516,0.9348 0.63721,1.856 1.54328,2.0642 l 7.67381,2.0657 c 1.00864,0.2706 2.17081,-0.4078 2.43926,-1.424 0.26844,-1.0162 -0.40526,-2.1868 -1.41402,-2.457 -2.97436,-0.6944 -5.86809,-1.7014 -8.48157,-2.1282 z m -37.43699,22.1774 c 3.22861,0 12.67762,0 15.90684,0 l 0,3.0046 -15.90684,0 z m 0,7.0107 15.90684,0 0,2.8297 -4.97089,0 c -0.99418,0.1749 -1.98835,1.1765 -2.98253,2.178 -0.99418,-1.0015 -1.98836,-2.0031 -2.98253,-2.178 l -4.97089,0 z"
                                fill-opacity="1" stroke="none" marker="none" visibility="visible" display="inline"
                                overflow="visible"></path>
                        </g>
                    </svg></svg>
                <defs>
                    <filter id="colors7526097431">
                        <feColorMatrix type="matrix"
                            values="0 0 0 0 0.203125  0 0 0 0 0.234375  0 0 0 0 0.2421875  0 0 0 1 0"
                            class="icon-fecolormatrix"></feColorMatrix>
                    </filter>
                    <filter id="colorsf5834159390">
                        <feColorMatrix type="matrix"
                            values="0 0 0 0 0.99609375  0 0 0 0 0.99609375  0 0 0 0 0.99609375  0 0 0 1 0"
                            class="icon-fecolormatrix"></feColorMatrix>
                    </filter>
                    <filter id="colorsb1622602327">
                        <feColorMatrix type="matrix" values="0 0 0 0 0  0 0 0 0 0  0 0 0 0 0  0 0 0 1 0"
                            class="icon-fecolormatrix"></feColorMatrix>
                    </filter>
                </defs>
            </g>
        </g>
        <g transform="translate(0,70.79721069335938)">
            <g data-gra="path-name" fill-rule="" class="tp-name iconsvg-namesvg">
                <g transform="scale(1)">
                    <g>
                        <path
                            d="M9.97 3.72Q7.36 3.72 5.13 2.84 2.91 1.97 1.54 0.19 0.17-1.58 0.17-4.11L0.17-4.11Q0.17-7.27 2.14-8.66 4.11-10.05 6.76-10.05L6.76-10.05Q5.39-8.64 4.68-7.1 3.98-5.56 3.98-4.11L3.98-4.11Q3.98-1.8 5.75-0.17 7.53 1.45 10.69 1.45L10.69 1.45Q12.7 1.45 14.52 0.79 16.34 0.13 17.47-1.2 18.61-2.52 18.61-4.32L18.61-4.32Q18.61-5.9 17.71-7.14 16.81-8.38 15.51-9.28 14.2-10.18 11.98-11.38L11.98-11.38Q9.62-12.66 8.17-13.65 6.72-14.63 5.73-16.06 4.75-17.5 4.75-19.38L4.75-19.38Q4.75-21.82 6.33-24.51 7.91-27.21 10.78-29 13.65-30.8 17.2-30.8L17.2-30.8Q22.54-30.8 22.54-26.31L22.54-26.31Q22.54-24.13 21.49-21.45 20.45-18.78 19.12-16.73L19.12-16.73Q17.24-17.11 17.24-18.91L17.24-18.91Q17.24-19.72 17.56-20.77 17.88-21.82 18.48-23.27L18.48-23.27Q19.08-24.9 19.38-25.84 19.68-26.78 19.68-27.55L19.68-27.55Q19.68-28.36 19.18-28.77 18.69-29.17 17.41-29.17L17.41-29.17Q14.84-29.17 12.7-27.72 10.57-26.26 9.3-24.19 8.04-22.12 8.04-20.36L8.04-20.36Q8.04-19.08 8.81-18.05 9.58-17.02 10.76-16.28 11.93-15.53 13.94-14.46L13.94-14.46Q16.47-13.09 17.99-12.06 19.51-11.04 20.6-9.41 21.69-7.79 21.69-5.52L21.69-5.52Q21.69-2.69 20-0.6 18.31 1.5 15.59 2.61 12.88 3.72 9.97 3.72L9.97 3.72ZM46.63 1.33Q45.04 1.33 44.19 0.38 43.33-0.56 43.33-2.01L43.33-2.01Q43.33-2.69 43.52-3.53 43.72-4.36 43.97-5.09L43.97-5.09Q44.53-6.84 44.53-7.66L44.53-7.66Q44.53-8.94 43.55-8.94L43.55-8.94Q42.6-8.94 41.36-7.57 40.12-6.2 38.03-3.08L38.03-3.08Q37.51-2.31 36.49-0.47L36.49-0.47 35.67 0.98Q34.9 0.98 34.01 0.68 33.11 0.38 33.11-0.13L33.11-0.13Q33.11-0.56 34.01-2.87L34.01-2.87Q34.86-5.09 35.4-6.76 35.93-8.43 35.93-9.54L35.93-9.54Q35.93-10.82 35.03-10.82L35.03-10.82Q33.88-10.82 32.04-9 30.2-7.19 28.4-4.38 26.61-1.58 25.62 1.15L25.62 1.15Q24.85 1.15 23.8 0.73 22.76 0.3 22.76 0L22.76 0 25.49-10.95Q25.62-11.42 26.41-11.78 27.21-12.15 27.85-12.15L27.85-12.15Q28.49-12.15 28.89-11.76 29.3-11.38 29.3-10.74L29.3-10.74Q29.3-10.05 28.7-7.66L28.7-7.66Q30.76-10.48 32.94-12.34 35.12-14.2 37.04-14.2L37.04-14.2Q38.5-14.2 39.12-13.17 39.74-12.15 39.74-10.61L39.74-10.61Q39.74-9.8 39.57-9.09 39.4-8.38 39.01-7.19L39.01-7.19Q42.01-11.59 45.21-11.59L45.21-11.59Q46.75-11.59 47.46-10.67 48.17-9.75 48.17-8.38L48.17-8.38Q48.17-7.02 47.31-4.53L47.31-4.53Q47.27-4.36 46.99-3.42 46.71-2.48 46.71-1.88L46.71-1.88Q46.71-0.73 47.78-0.73L47.78-0.73Q49.32-0.73 50.8-2.69 52.27-4.66 53.56-7.4L53.56-7.4 54.28-6.5Q53.04-3.29 51.1-0.98 49.15 1.33 46.63 1.33L46.63 1.33ZM54.88 2.01Q53.38 2.01 52.38 1.03 51.37 0.04 51.37-1.75L51.37-1.75Q51.37-4.23 53.19-7.31 55.01-10.39 57.83-12.53 60.66-14.67 63.48-14.67L63.48-14.67Q65.36-14.67 66.62-13.71 67.88-12.75 67.88-11.25L67.88-11.25Q67.88-9.28 65.45-9.2L65.45-9.2Q66.99-8.73 66.99-7.91L66.99-7.91Q66.99-7.61 66.69-7.02 66.39-6.42 66-5.77L66-5.77Q65.32-4.66 64.93-3.83 64.55-2.99 64.55-2.27L64.55-2.27Q64.55-1.63 64.87-1.18 65.19-0.73 65.83-0.73L65.83-0.73Q67.03-0.73 68.89-2.4 70.75-4.06 72.5-7.4L72.5-7.4 73.32-6.59Q71.73-3.04 69.38-0.88 67.03 1.28 64.63 1.28L64.63 1.28Q62.92 1.28 62 0.15 61.08-0.98 61.08-2.44L61.08-2.44Q59.16-0.13 57.79 0.94 56.42 2.01 54.88 2.01L54.88 2.01ZM55.78-0.17Q57.28-0.17 59.27-2.33 61.25-4.49 63.78-7.96L63.78-7.96 64.63-9.11Q64.76-9.33 64.98-9.33L64.98-9.33 65.15-9.28Q65.36-9.97 65.36-10.87L65.36-10.87Q65.36-13.09 63.56-13.09L63.56-13.09Q61.68-13.09 59.63-11.08 57.58-9.07 56.19-6.29 54.8-3.51 54.8-1.54L54.8-1.54Q54.8-0.81 55.03-0.49 55.27-0.17 55.78-0.17L55.78-0.17ZM79.39 1.11Q77.81 1.11 76.83 0.28 75.84-0.56 75.84-1.97L75.84-1.97Q75.84-2.78 76.16-3.74 76.48-4.71 77.12-6.07L77.12-6.07Q77.68-7.27 77.98-8.11 78.28-8.94 78.28-9.58L78.28-9.58Q78.28-11.21 76.14-12.32L76.14-12.32Q75.29-10.18 74.15-8 73.02-5.82 72.12-4.32L72.12-4.32 71.48-5.56Q73.45-9.07 74.94-13.3L74.94-13.3Q74.52-13.73 74.52-14.46L74.52-14.46Q74.52-15.57 75.2-16.55 75.88-17.54 76.53-17.54L76.53-17.54Q76.95-17.54 77.23-17.02 77.51-16.51 77.51-16.17L77.51-16.17Q77.51-16 77.32-15.42 77.12-14.84 77.04-14.59L77.04-14.59Q77.08-14.29 77.38-14.01 77.68-13.73 78.49-13.22L78.49-13.22Q79.99-12.23 80.82-11.31 81.66-10.39 81.66-8.85L81.66-8.85Q81.66-7.91 81.34-6.97 81.02-6.03 80.38-4.71L80.38-4.71Q79.43-2.82 79.43-2.01L79.43-2.01Q79.43-1.03 80.5-1.03L80.5-1.03Q81.79-1.03 83.31-2.05 84.82-3.08 86.09-4.56 87.35-6.03 87.95-7.31L87.95-7.31 88.97-6.54Q88.12-4.62 86.58-2.87 85.04-1.11 83.13 0 81.23 1.11 79.39 1.11L79.39 1.11ZM90.9 1.97Q88.93 1.97 87.82 0.83 86.71-0.3 86.71-2.52L86.71-2.52Q86.71-4.19 87.35-6.78 87.99-9.37 89.06-12.28L89.06-12.28Q87.95-12.49 87.56-12.66L87.56-12.66 87.56-13.99Q88.59-13.86 89.62-13.77L89.62-13.77Q91.54-18.61 93.74-22.07 95.95-25.54 97.31-25.54L97.31-25.54Q97.79-25.54 98.15-25.19 98.51-24.85 98.51-24.3L98.51-24.3Q98.51-23.61 97.91-22.46 97.31-21.3 95.95-18.95L95.95-18.95Q94.06-15.78 92.99-13.65L92.99-13.65Q97.91-13.65 100.82-13.94L100.82-13.94 100.82-12.53Q95.77-12.02 92.22-12.02L92.22-12.02Q90-6.76 90-3.42L90-3.42Q90-1.67 90.56-0.94 91.11-0.21 92.31-0.21L92.31-0.21Q94.45-0.21 96.69-2.16 98.94-4.11 100.61-7.44L100.61-7.44 101.21-7.02Q99.45-3.04 96.67-0.53 93.89 1.97 90.9 1.97L90.9 1.97ZM106.38 3.72Q103.73 3.72 102.43 2.84 101.12 1.97 101.08 0.04L101.08 0.04Q101.08-0.38 101.55-0.38L101.55-0.38Q101.81-0.38 102.73-0.19 103.65 0 105.74 0L105.74 0Q110.62 0 114.57-1.35 118.53-2.69 120.8-4.88 123.07-7.06 123.07-9.5L123.07-9.5Q123.07-12.49 119.94-13.54 116.82-14.59 111.99-14.59L111.99-14.59 108.82-14.54Q108.18-12.36 107.69-10.52 107.2-8.68 106.81-7.31L106.81-7.31Q105.57-2.65 105.1-1.03L105.1-1.03Q103.82-1.03 102.88-1.71 101.93-2.4 101.93-3.38L101.93-3.38Q101.93-4.15 102.36-5.35L102.36-5.35 102.53-5.86 103.09-7.57Q107.84-22.37 111.22-28.92L111.22-28.92Q109.08-28.45 106.81-27.21L106.81-27.21Q106.6-27.12 106.21-26.93 105.83-26.73 105.66-26.73L105.66-26.73Q105.23-26.73 104.59-27.36 103.94-27.98 103.94-28.4L103.94-28.4Q106.9-29.6 109.23-30.2 111.56-30.8 114.72-30.8L114.72-30.8Q118.96-30.8 122.21-29.34 125.46-27.89 125.46-23.83L125.46-23.83Q125.46-20.53 122.87-18.59 120.29-16.64 116.52-15.74L116.52-15.74Q121.35-15.1 123.54-13.13 125.72-11.16 125.72-8.85L125.72-8.85Q125.72-4.96 122.49-2.1 119.26 0.77 114.7 2.25 110.15 3.72 106.38 3.72L106.38 3.72ZM109.25-16.17Q114.81-16.38 118.51-18.29 122.21-20.19 122.21-24.17L122.21-24.17Q122.21-29.3 114.17-29.3L114.17-29.3Q111.77-24.68 109.25-16.17L109.25-16.17ZM135.04 1.11Q133.46 1.11 132.48 0.28 131.49-0.56 131.49-1.97L131.49-1.97Q131.49-2.78 131.81-3.74 132.13-4.71 132.78-6.07L132.78-6.07Q133.33-7.27 133.63-8.11 133.93-8.94 133.93-9.58L133.93-9.58Q133.93-11.21 131.79-12.32L131.79-12.32Q130.94-10.18 129.8-8 128.67-5.82 127.77-4.32L127.77-4.32 127.13-5.56Q129.1-9.07 130.59-13.3L130.59-13.3Q130.17-13.73 130.17-14.46L130.17-14.46Q130.17-15.57 130.85-16.55 131.54-17.54 132.18-17.54L132.18-17.54Q132.6-17.54 132.88-17.02 133.16-16.51 133.16-16.17L133.16-16.17Q133.16-16 132.97-15.42 132.78-14.84 132.69-14.59L132.69-14.59Q132.73-14.29 133.03-14.01 133.33-13.73 134.14-13.22L134.14-13.22Q135.64-12.23 136.48-11.31 137.31-10.39 137.31-8.85L137.31-8.85Q137.31-7.91 136.99-6.97 136.67-6.03 136.03-4.71L136.03-4.71Q135.09-2.82 135.09-2.01L135.09-2.01Q135.09-1.03 136.15-1.03L136.15-1.03Q137.44-1.03 138.96-2.05 140.48-3.08 141.74-4.56 143-6.03 143.6-7.31L143.6-7.31 144.62-6.54Q143.77-4.62 142.23-2.87 140.69-1.11 138.79 0 136.88 1.11 135.04 1.11L135.04 1.11ZM151.13-18.01Q150.23-18.01 149.61-18.44 148.99-18.86 148.99-19.68L148.99-19.68Q148.99-20.66 150.08-21.41 151.17-22.16 152.41-22.16L152.41-22.16Q154.25-22.16 154.25-20.58L154.25-20.58Q154.25-19.68 153.27-18.84 152.28-18.01 151.13-18.01L151.13-18.01ZM146.08 1.28Q144.28 1.28 143.3 0.21 142.31-0.86 142.31-2.52L142.31-2.52Q142.31-4.23 143.28-7.16 144.24-10.1 145.72-12.32 147.19-14.54 148.69-14.54L148.69-14.54Q149.24-14.54 149.61-14.22 149.97-13.9 149.97-13.3L149.97-13.3Q149.97-12.92 149.63-12.26 149.29-11.59 148.52-10.35L148.52-10.35Q147.15-8.08 146.36-6.35 145.57-4.62 145.57-3.08L145.57-3.08Q145.57-1.75 146.04-1.28 146.51-0.81 147.49-0.81L147.49-0.81Q150.87-0.81 154.21-7.36L154.21-7.36 154.85-6.67Q153.35-2.91 151.04-0.81 148.73 1.28 146.08 1.28L146.08 1.28ZM156.99 1.97Q155.02 1.97 153.91 0.83 152.79-0.3 152.79-2.52L152.79-2.52Q152.79-4.19 153.44-6.78 154.08-9.37 155.15-12.28L155.15-12.28Q154.04-12.49 153.65-12.66L153.65-12.66 153.65-13.99Q154.68-13.86 155.7-13.77L155.7-13.77Q157.63-18.61 159.83-22.07 162.03-25.54 163.4-25.54L163.4-25.54Q163.87-25.54 164.24-25.19 164.6-24.85 164.6-24.3L164.6-24.3Q164.6-23.61 164-22.46 163.4-21.3 162.03-18.95L162.03-18.95Q160.15-15.78 159.08-13.65L159.08-13.65Q164-13.65 166.91-13.94L166.91-13.94 166.91-12.53Q161.86-12.02 158.31-12.02L158.31-12.02Q156.09-6.76 156.09-3.42L156.09-3.42Q156.09-1.67 156.64-0.94 157.2-0.21 158.4-0.21L158.4-0.21Q160.54-0.21 162.78-2.16 165.03-4.11 166.7-7.44L166.7-7.44 167.3-7.02Q165.54-3.04 162.76-0.53 159.98 1.97 156.99 1.97L156.99 1.97ZM170.38 1.88Q167.68 1.88 166.18 0.43 164.69-1.03 164.69-3.29L164.69-3.29Q164.69-5.77 166.35-8.66 168.02-11.55 170.63-13.5 173.24-15.44 175.77-15.44L175.77-15.44Q177.09-15.44 177.99-14.78 178.89-14.12 178.89-12.58L178.89-12.58Q178.89-10.52 177.31-8.7 175.72-6.89 173.22-5.73 170.72-4.58 168.11-4.28L168.11-4.28Q168.02-3.85 168.02-3.29L168.02-3.29Q168.02-2.18 168.64-1.07 169.26 0.04 171.32 0.04L171.32 0.04Q173.93 0.04 176.64-2.07 179.36-4.19 181.03-7.36L181.03-7.36 181.88-6.67Q180.17-2.82 176.98-0.47 173.8 1.88 170.38 1.88L170.38 1.88ZM168.58-5.86Q170.12-6.03 172.02-7.1 173.93-8.17 175.25-9.73 176.58-11.29 176.58-12.79L176.58-12.79Q176.58-13.26 176.41-13.43 176.24-13.6 175.85-13.6L175.85-13.6Q174.61-13.6 173.13-12.43 171.66-11.25 170.42-9.45 169.18-7.66 168.58-5.86L168.58-5.86Z"
                            transform="translate(-0.17000001668930054, 30.799999237060547)"></path>
                    </g>
                    <!---->
                    <!---->
                    <!---->
                    <!---->
                    <!---->
                    <!---->
                    <!---->
                </g>
            </g>
            <!---->
        </g>
    </g>
    <defs v-gra="od"></defs>
</svg>