<svg xmlns="http://www.w3.org/2000/svg" xmlns:xlink="http://www.w3.org/1999/xlink" width="181.7100067138672" height="105.31721878051758" viewBox="0 0 181.7100067138672 105.31721878051758" fill="none">
<rect x="60.855010986328125" y="0" width="60" height="63.797209935352164"   fill="#343C3E" fill-opacity="0">
</rect>
<g  clip-path="url(#clip-path-2cgMESnp741_Yz3PPI2id)">
<path d="M94.4889 -0.775798L92.9316 5.09505C92.7275 5.86671 93.239 6.75607 94.0051 6.96189C94.7712 7.16688 95.6537 6.65126 95.8575 5.87962L97.4148 0.0079807C97.6399 -0.76291 97.1002 -1.63403 96.3597 -1.87633C95.484 -2.1171 94.857 -1.40011 94.4889 -0.775798ZM80.5909 -1.91735C79.7026 -1.85204 79.0071 -0.85632 79.2459 0.00872493L80.8033 5.87962C81.007 6.65126 81.8895 7.16688 82.6557 6.96189C83.4218 6.75607 83.9332 5.86671 83.7291 5.09505L82.1718 -0.775798C81.9978 -1.46316 81.2931 -1.972 80.5909 -1.91735ZM103.809 10.5148C103.247 11.0814 103.247 12.112 103.809 12.6778C104.371 13.2444 105.394 13.2444 105.956 12.6778L110.227 8.3753C110.827 7.47143 110.766 6.88442 110.217 6.14012C109.507 5.61076 108.92 5.69886 108.189 6.14392C106.7 7.54746 105.259 9.05429 103.809 10.5148ZM66.4688 6.15C65.7599 6.84417 66.065 7.72746 66.4334 8.3753L70.7043 12.6778C71.2664 13.2444 72.2893 13.2444 72.8515 12.6778C73.4137 12.112 73.4137 11.0814 72.8515 10.5148L68.5807 6.21227C67.7765 5.76797 67.1885 5.58494 66.4688 6.15ZM88.3304 11.5371C79.174 11.5371 71.7189 19.0477 71.7189 28.2717C71.7189 32.5856 73.8505 35.7754 75.7302 38.7071C77.6098 41.6386 79.2696 44.3273 79.2696 48.0488C79.2692 51.588 79.2696 55.1501 79.2696 58.6969C79.2696 59.4943 79.989 60.2159 80.7797 60.2159L85.4517 60.2159C86.0659 60.9753 86.8202 61.8715 87.5753 61.8715L89.0854 61.8715C89.8405 61.8715 90.4789 60.9146 91.1854 60.2159L95.8811 60.2159C96.6718 60.2159 97.3912 59.4943 97.3912 58.6969C97.3912 54.9297 97.3912 51.1475 97.3912 47.9044C97.4535 44.2893 99.1031 41.6386 100.954 38.7299C102.829 35.783 104.942 32.578 104.942 28.2717C104.942 19.0477 97.4867 11.5371 88.3304 11.5371ZM88.3304 14.5796C95.8545 14.5796 101.922 20.692 101.922 28.2717C101.922 31.5679 100.294 34.1273 98.4058 37.0894C96.7379 39.7096 94.9624 42.702 94.5361 46.5298L92.8608 46.5298L92.8608 30.2691C93.5985 30.1856 94.3588 29.9805 95.1024 29.6236C97.2313 28.621 98.3286 26.8393 97.5092 25.6803C96.6897 24.5221 94.2582 24.3922 92.1293 25.3955C90.9681 25.9423 90.1236 26.7246 89.7225 27.5107L86.9382 27.5107C86.5371 26.7246 85.6927 25.9423 84.5314 25.3955C82.4025 24.3922 79.971 24.5221 79.1515 25.6803C78.3321 26.8393 79.4294 28.621 81.5584 29.6236C82.3019 29.9805 83.0622 30.1856 83.7999 30.2691C83.7999 35.6843 83.7999 41.1071 83.7999 46.5298L82.1246 46.5298C81.7154 42.6716 79.9528 39.6564 78.2785 37.0438C76.3828 34.0818 74.7391 31.5679 74.7391 28.2717C74.7391 20.692 80.8062 14.5796 88.3304 14.5796ZM116.645 19.072C114.63 19.5565 112.579 20.1444 110.558 20.6889C109.792 20.894 109.28 21.7833 109.484 22.555C109.688 23.3266 110.57 23.8416 111.336 23.6365L117.165 22.0674C118.214 21.4963 118.431 20.9684 118.292 20.003C117.778 19.2763 117.352 19.056 116.645 19.072ZM59.685 19.072C58.9815 19.1449 58.3772 19.7783 58.3323 20.4892C58.2875 21.2001 58.8076 21.9056 59.4962 22.0674L65.3244 23.6365C66.0904 23.8416 66.9731 23.3266 67.177 22.555C67.3809 21.7833 66.8692 20.894 66.103 20.6889C63.9782 20.2841 61.792 19.2421 59.685 19.0727L59.685 19.072ZM86.8202 30.5502L89.8405 30.5502L89.8405 46.5298L86.8202 46.5298L86.8202 30.5502ZM65.7255 32.8362C63.668 33.2919 61.5609 33.9223 59.4962 34.4767C58.7301 34.6818 58.2184 35.5704 58.4223 36.3451C58.6262 37.1121 59.5089 37.6286 60.2749 37.4235L66.103 35.8514C66.8805 35.7451 67.4931 34.94 67.3951 34.1577C66.9905 33.3906 66.4526 32.7755 65.7255 32.8362ZM110.723 32.859C110.022 32.9425 109.425 33.5729 109.386 34.2868C109.346 34.9931 109.87 35.6995 110.558 35.8514L116.386 37.4235C117.152 37.6286 118.035 37.1121 118.238 36.3451C118.442 35.5704 117.931 34.6818 117.165 34.4767C114.906 33.9451 112.708 33.1856 110.723 32.859ZM82.2898 49.7044C84.7419 49.7044 91.9184 49.7044 94.3709 49.7044L94.3709 51.9829L82.2898 51.9829L82.2898 49.7044ZM82.2898 55.0285L94.3709 55.0285L94.3709 57.1779L90.5956 57.1779C89.8405 57.307 89.0854 58.0665 88.3304 58.8336C87.5753 58.0665 86.8202 57.307 86.0652 57.1779L82.2898 57.1779L82.2898 55.0285Z"   fill="#000000" >
</path>
</g>
<path d="M9.8 105.317C8.06 105.317 6.44667 105.024 4.96 104.437C3.48 103.857 2.28333 102.974 1.37 101.787C0.456667 100.607 0 99.1739 0 97.4872C0 95.3805 0.656667 93.8639 1.97 92.9372C3.28333 92.0105 4.82333 91.5472 6.59 91.5472C5.67667 92.4872 4.98333 93.4705 4.51 94.4972C4.04333 95.5239 3.81 96.5205 3.81 97.4872C3.81 99.0272 4.4 100.341 5.58 101.427C6.76667 102.507 8.41333 103.047 10.52 103.047C11.86 103.047 13.1367 102.827 14.35 102.387C15.5633 101.947 16.5467 101.284 17.3 100.397C18.06 99.5172 18.44 98.4772 18.44 97.2772C18.44 96.2239 18.14 95.2839 17.54 94.4572C16.94 93.6305 16.2067 92.9172 15.34 92.3172C14.4667 91.7172 13.29 91.0172 11.81 90.2172C10.2367 89.3639 8.96667 88.6072 8 87.9472C7.03333 87.2939 6.22 86.4905 5.56 85.5372C4.90667 84.5772 4.58 83.4705 4.58 82.2172C4.58 80.5905 5.10667 78.8805 6.16 77.0872C7.21333 75.2872 8.69667 73.7906 10.61 72.5972C12.5233 71.3972 14.6633 70.7972 17.03 70.7972C20.59 70.7972 22.37 72.2939 22.37 75.2872C22.37 76.7405 22.02 78.3605 21.32 80.1472C20.6267 81.9272 19.8367 83.5005 18.95 84.8672C17.6967 84.6139 17.07 83.8872 17.07 82.6872C17.07 82.1472 17.1767 81.5272 17.39 80.8272C17.6033 80.1272 17.91 79.2939 18.31 78.3272C18.71 77.2405 19.01 76.3839 19.21 75.7572C19.41 75.1305 19.51 74.5605 19.51 74.0472C19.51 73.5072 19.3433 73.1005 19.01 72.8272C18.6833 72.5605 18.0933 72.4272 17.24 72.4272C15.5267 72.4272 13.9567 72.9105 12.53 73.8772C11.11 74.8505 9.97667 76.0272 9.13 77.4072C8.29 78.7872 7.87 80.0639 7.87 81.2372C7.87 82.0905 8.12667 82.8605 8.64 83.5472C9.15333 84.2339 9.80333 84.8239 10.59 85.3172C11.37 85.8172 12.43 86.4239 13.77 87.1372C15.4567 88.0505 16.8067 88.8505 17.82 89.5372C18.8333 90.2172 19.7033 91.1005 20.43 92.1872C21.1567 93.2672 21.52 94.5639 21.52 96.0772C21.52 97.9639 20.9567 99.6039 19.83 100.997C18.7033 102.397 17.2333 103.467 15.42 104.207C13.6133 104.947 11.74 105.317 9.8 105.317ZM46.46 102.927C45.4 102.927 44.5867 102.611 44.02 101.977C43.4467 101.351 43.16 100.554 43.16 99.5872C43.16 99.1339 43.2233 98.6272 43.35 98.0672C43.4833 97.5139 43.6333 96.9939 43.8 96.5072C44.1733 95.3405 44.36 94.4839 44.36 93.9372C44.36 93.0839 44.0333 92.6572 43.38 92.6572C42.7467 92.6572 42.0167 93.1139 41.19 94.0272C40.3633 94.9405 39.2533 96.4372 37.86 98.5172C37.5133 99.0305 37 99.9005 36.32 101.127L35.5 102.577C34.9867 102.577 34.4333 102.477 33.84 102.277C33.24 102.077 32.94 101.807 32.94 101.467C32.94 101.181 33.24 100.267 33.84 98.7272C34.4067 97.2472 34.87 95.9505 35.23 94.8372C35.5833 93.7239 35.76 92.7972 35.76 92.0572C35.76 91.2039 35.46 90.7772 34.86 90.7772C34.0933 90.7772 33.0967 91.3839 31.87 92.5972C30.6433 93.8039 29.43 95.3439 28.23 97.2172C27.0367 99.0839 26.11 100.927 25.45 102.747C24.9367 102.747 24.33 102.607 23.63 102.327C22.9367 102.041 22.59 101.797 22.59 101.597L25.32 90.6472C25.4067 90.3339 25.7133 90.0572 26.24 89.8172C26.7733 89.5705 27.2533 89.4472 27.68 89.4472C28.1067 89.4472 28.4533 89.5772 28.72 89.8372C28.9933 90.0905 29.13 90.4305 29.13 90.8572C29.13 91.3172 28.93 92.3439 28.53 93.9372C29.9033 92.0572 31.3167 90.4972 32.77 89.2572C34.2233 88.0172 35.59 87.3972 36.87 87.3972C37.8433 87.3972 38.5367 87.7405 38.95 88.4272C39.3633 89.1072 39.57 89.9605 39.57 90.9872C39.57 91.5272 39.5133 92.0339 39.4 92.5072C39.2867 92.9805 39.1 93.6139 38.84 94.4072C40.84 91.4739 42.9067 90.0072 45.04 90.0072C46.0667 90.0072 46.8167 90.3139 47.29 90.9272C47.7633 91.5405 48 92.3039 48 93.2172C48 94.1239 47.7133 95.4072 47.14 97.0672C47.1133 97.1805 47.0067 97.5505 46.82 98.1772C46.6333 98.8039 46.54 99.3172 46.54 99.7172C46.54 100.484 46.8967 100.867 47.61 100.867C48.6367 100.867 49.6433 100.214 50.63 98.9072C51.61 97.5939 52.53 96.0239 53.39 94.1972L54.11 95.0972C53.2833 97.2372 52.2233 99.0772 50.93 100.617C49.63 102.157 48.14 102.927 46.46 102.927ZM54.71 103.607C53.71 103.607 52.8767 103.281 52.21 102.627C51.5367 101.967 51.2 101.041 51.2 99.8472C51.2 98.1939 51.8067 96.3405 53.02 94.2872C54.2333 92.2339 55.78 90.4939 57.66 89.0672C59.5467 87.6405 61.43 86.9272 63.31 86.9272C64.5633 86.9272 65.61 87.2472 66.45 87.8872C67.29 88.5272 67.71 89.3472 67.71 90.3472C67.71 91.6605 66.9 92.3439 65.28 92.3972C66.3067 92.7105 66.82 93.1405 66.82 93.6872C66.82 93.8872 66.72 94.1839 66.52 94.5772C66.32 94.9772 66.09 95.3939 65.83 95.8272C65.3767 96.5672 65.02 97.2139 64.76 97.7672C64.5067 98.3272 64.38 98.8472 64.38 99.3272C64.38 99.7539 64.4867 100.117 64.7 100.417C64.9133 100.717 65.2333 100.867 65.66 100.867C66.46 100.867 67.48 100.311 68.72 99.1972C69.96 98.0905 71.1633 96.4239 72.33 94.1972L73.15 95.0072C72.09 97.3739 70.7767 99.2772 69.21 100.717C67.6433 102.157 66.06 102.877 64.46 102.877C63.32 102.877 62.4433 102.501 61.83 101.747C61.2167 100.994 60.91 100.131 60.91 99.1572C59.63 100.697 58.5333 101.824 57.62 102.537C56.7067 103.251 55.7367 103.607 54.71 103.607ZM55.61 101.427C56.61 101.427 57.7733 100.707 59.1 99.2672C60.42 97.8272 61.9233 95.9505 63.61 93.6372L64.46 92.4872C64.5467 92.3405 64.6633 92.2672 64.81 92.2672L64.98 92.3172C65.12 91.8572 65.19 91.3272 65.19 90.7272C65.19 89.2472 64.59 88.5072 63.39 88.5072C62.1367 88.5072 60.8267 89.1772 59.46 90.5172C58.0933 91.8572 56.9467 93.4539 56.02 95.3072C55.0933 97.1605 54.63 98.7439 54.63 100.057C54.63 100.544 54.7067 100.894 54.86 101.107C55.02 101.321 55.27 101.427 55.61 101.427ZM79.22 102.707C78.1667 102.707 77.3133 102.431 76.66 101.877C76 101.317 75.67 100.567 75.67 99.6272C75.67 99.0872 75.7767 98.4972 75.99 97.8572C76.2033 97.2105 76.5233 96.4339 76.95 95.5272C77.3233 94.7272 77.61 94.0472 77.81 93.4872C78.01 92.9339 78.11 92.4439 78.11 92.0172C78.11 90.9305 77.3967 90.0172 75.97 89.2772C75.4033 90.7039 74.74 92.1439 73.98 93.5972C73.2267 95.0505 72.55 96.2772 71.95 97.2772L71.31 96.0372C72.6233 93.6972 73.7767 91.1172 74.77 88.2972C74.49 88.0105 74.35 87.6239 74.35 87.1372C74.35 86.3972 74.5767 85.7005 75.03 85.0472C75.4833 84.3872 75.9267 84.0572 76.36 84.0572C76.64 84.0572 76.8733 84.2305 77.06 84.5772C77.2467 84.9172 77.34 85.2005 77.34 85.4272C77.34 85.5405 77.2767 85.7905 77.15 86.1772C77.0167 86.5639 76.9233 86.8405 76.87 87.0072C76.8967 87.2072 77.01 87.4005 77.21 87.5872C77.41 87.7739 77.78 88.0372 78.32 88.3772C79.32 89.0372 80.0967 89.6739 80.65 90.2872C81.21 90.9005 81.49 91.7205 81.49 92.7472C81.49 93.3739 81.3833 94.0005 81.17 94.6272C80.9567 95.2539 80.6367 96.0072 80.21 96.8872C79.5767 98.1472 79.26 99.0472 79.26 99.5872C79.26 100.241 79.6167 100.567 80.33 100.567C81.19 100.567 82.1267 100.227 83.14 99.5472C84.1467 98.8605 85.0733 98.0239 85.92 97.0372C86.76 96.0572 87.38 95.1405 87.78 94.2872L88.8 95.0572C88.2333 96.3372 87.4367 97.5605 86.41 98.7272C85.3833 99.9005 84.2333 100.857 82.96 101.597C81.6933 102.337 80.4467 102.707 79.22 102.707ZM90.73 103.567C89.4167 103.567 88.39 103.187 87.65 102.427C86.91 101.674 86.54 100.557 86.54 99.0772C86.54 97.9639 86.7533 96.5439 87.18 94.8172C87.6067 93.0905 88.1767 91.2572 88.89 89.3172C88.15 89.1772 87.65 89.0505 87.39 88.9372L87.39 87.6072C88.0767 87.6939 88.7633 87.7672 89.45 87.8272C90.73 84.6005 92.1033 81.8339 93.57 79.5272C95.0433 77.2139 96.2333 76.0572 97.14 76.0572C97.46 76.0572 97.74 76.1739 97.98 76.4072C98.22 76.6339 98.34 76.9305 98.34 77.2972C98.34 77.7572 98.14 78.3705 97.74 79.1372C97.34 79.9105 96.6867 81.0805 95.78 82.6472C94.52 84.7605 93.5333 86.5272 92.82 87.9472C96.1 87.9472 98.71 87.8505 100.65 87.6572L100.65 89.0672C97.2833 89.4072 94.4167 89.5772 92.05 89.5772C90.57 93.0839 89.83 95.9505 89.83 98.1772C89.83 99.3439 90.0167 100.171 90.39 100.657C90.7567 101.144 91.34 101.387 92.14 101.387C93.5667 101.387 95.0267 100.737 96.52 99.4372C98.02 98.1372 99.3267 96.3772 100.44 94.1572L101.04 94.5772C99.8667 97.2305 98.3533 99.3939 96.5 101.067C94.6467 102.734 92.7233 103.567 90.73 103.567ZM106.21 105.317C104.443 105.317 103.127 105.024 102.26 104.437C101.387 103.857 100.937 102.924 100.91 101.637C100.91 101.357 101.067 101.217 101.38 101.217C101.553 101.217 101.947 101.281 102.56 101.407C103.173 101.534 104.177 101.597 105.57 101.597C108.823 101.597 111.767 101.147 114.4 100.247C117.04 99.3539 119.117 98.1772 120.63 96.7172C122.143 95.2639 122.9 93.7239 122.9 92.0972C122.9 90.1039 121.857 88.7572 119.77 88.0572C117.69 87.3572 115.04 87.0072 111.82 87.0072L108.65 87.0572C108.223 88.5105 107.847 89.8505 107.52 91.0772C107.193 92.3039 106.9 93.3739 106.64 94.2872C105.813 97.3939 105.243 99.4872 104.93 100.567C104.077 100.567 103.337 100.341 102.71 99.8872C102.077 99.4272 101.76 98.8705 101.76 98.2172C101.76 97.7039 101.903 97.0472 102.19 96.2472L102.36 95.7372L102.92 94.0272C106.087 84.1605 108.797 77.0439 111.05 72.6772C109.623 72.9905 108.153 73.5605 106.64 74.3872C106.5 74.4472 106.3 74.5406 106.04 74.6672C105.787 74.8006 105.603 74.8672 105.49 74.8672C105.203 74.8672 104.847 74.6572 104.42 74.2372C103.987 73.8239 103.77 73.4772 103.77 73.1972C105.743 72.3972 107.507 71.7972 109.06 71.3972C110.613 70.9972 112.443 70.7972 114.55 70.7972C117.377 70.7972 119.873 71.2839 122.04 72.2572C124.207 73.2239 125.29 75.0605 125.29 77.7672C125.29 79.9672 124.427 81.7139 122.7 83.0072C120.98 84.3072 118.863 85.2572 116.35 85.8572C119.57 86.2839 121.91 87.1539 123.37 88.4672C124.823 89.7805 125.55 91.2072 125.55 92.7472C125.55 95.3405 124.473 97.5905 122.32 99.4972C120.167 101.411 117.57 102.861 114.53 103.847C111.497 104.827 108.723 105.317 106.21 105.317ZM109.08 85.4272C112.787 85.2872 115.873 84.5805 118.34 83.3072C120.807 82.0405 122.04 80.0806 122.04 77.4272C122.04 74.0072 119.36 72.2972 114 72.2972C112.4 75.3772 110.76 79.7539 109.08 85.4272ZM134.87 102.707C133.817 102.707 132.963 102.431 132.31 101.877C131.65 101.317 131.32 100.567 131.32 99.6272C131.32 99.0872 131.427 98.4972 131.64 97.8572C131.853 97.2105 132.177 96.4339 132.61 95.5272C132.977 94.7272 133.26 94.0472 133.46 93.4872C133.66 92.9339 133.76 92.4439 133.76 92.0172C133.76 90.9305 133.047 90.0172 131.62 89.2772C131.053 90.7039 130.39 92.1439 129.63 93.5972C128.877 95.0505 128.2 96.2772 127.6 97.2772L126.96 96.0372C128.273 93.6972 129.427 91.1172 130.42 88.2972C130.14 88.0105 130 87.6239 130 87.1372C130 86.3972 130.227 85.7005 130.68 85.0472C131.14 84.3872 131.583 84.0572 132.01 84.0572C132.29 84.0572 132.523 84.2305 132.71 84.5772C132.897 84.9172 132.99 85.2005 132.99 85.4272C132.99 85.5405 132.927 85.7905 132.8 86.1772C132.673 86.5639 132.58 86.8405 132.52 87.0072C132.547 87.2072 132.66 87.4005 132.86 87.5872C133.06 87.7739 133.43 88.0372 133.97 88.3772C134.97 89.0372 135.75 89.6739 136.31 90.2872C136.863 90.9005 137.14 91.7205 137.14 92.7472C137.14 93.3739 137.033 94.0005 136.82 94.6272C136.607 95.2539 136.287 96.0072 135.86 96.8872C135.233 98.1472 134.92 99.0472 134.92 99.5872C134.92 100.241 135.273 100.567 135.98 100.567C136.84 100.567 137.777 100.227 138.79 99.5472C139.803 98.8605 140.73 98.0239 141.57 97.0372C142.41 96.0572 143.03 95.1405 143.43 94.2872L144.45 95.0572C143.883 96.3372 143.087 97.5605 142.06 98.7272C141.033 99.9005 139.887 100.857 138.62 101.597C137.347 102.337 136.097 102.707 134.87 102.707ZM150.96 83.5872C150.36 83.5872 149.853 83.4439 149.44 83.1572C149.027 82.8772 148.82 82.4639 148.82 81.9172C148.82 81.2639 149.183 80.6872 149.91 80.1872C150.637 79.6872 151.413 79.4372 152.24 79.4372C153.467 79.4372 154.08 79.9639 154.08 81.0172C154.08 81.6172 153.753 82.1972 153.1 82.7572C152.44 83.3105 151.727 83.5872 150.96 83.5872ZM145.91 102.877C144.71 102.877 143.783 102.521 143.13 101.807C142.47 101.094 142.14 100.184 142.14 99.0772C142.14 97.9372 142.463 96.3905 143.11 94.4372C143.75 92.4772 144.563 90.7572 145.55 89.2772C146.53 87.7972 147.52 87.0572 148.52 87.0572C148.887 87.0572 149.193 87.1639 149.44 87.3772C149.68 87.5905 149.8 87.8972 149.8 88.2972C149.8 88.5505 149.687 88.8972 149.46 89.3372C149.233 89.7839 148.863 90.4205 148.35 91.2472C147.437 92.7605 146.717 94.0939 146.19 95.2472C145.663 96.4005 145.4 97.4905 145.4 98.5172C145.4 99.4039 145.557 100.004 145.87 100.317C146.183 100.631 146.667 100.787 147.32 100.787C149.573 100.787 151.813 98.6039 154.04 94.2372L154.68 94.9272C153.68 97.4339 152.41 99.3872 150.87 100.787C149.33 102.181 147.677 102.877 145.91 102.877ZM156.82 103.567C155.507 103.567 154.48 103.187 153.74 102.427C152.993 101.674 152.62 100.557 152.62 99.0772C152.62 97.9639 152.837 96.5439 153.27 94.8172C153.697 93.0905 154.267 91.2572 154.98 89.3172C154.24 89.1772 153.74 89.0505 153.48 88.9372L153.48 87.6072C154.167 87.6939 154.85 87.7672 155.53 87.8272C156.817 84.6005 158.193 81.8339 159.66 79.5272C161.127 77.2139 162.317 76.0572 163.23 76.0572C163.543 76.0572 163.823 76.1739 164.07 76.4072C164.31 76.6339 164.43 76.9305 164.43 77.2972C164.43 77.7572 164.23 78.3705 163.83 79.1372C163.43 79.9105 162.773 81.0805 161.86 82.6472C160.607 84.7605 159.623 86.5272 158.91 87.9472C162.19 87.9472 164.8 87.8505 166.74 87.6572L166.74 89.0672C163.373 89.4072 160.507 89.5772 158.14 89.5772C156.66 93.0839 155.92 95.9505 155.92 98.1772C155.92 99.3439 156.103 100.171 156.47 100.657C156.843 101.144 157.43 101.387 158.23 101.387C159.657 101.387 161.117 100.737 162.61 99.4372C164.11 98.1372 165.417 96.3772 166.53 94.1572L167.13 94.5772C165.957 97.2305 164.443 99.3939 162.59 101.067C160.737 102.734 158.813 103.567 156.82 103.567ZM170.21 103.477C168.41 103.477 167.01 102.994 166.01 102.027C165.017 101.054 164.52 99.8139 164.52 98.3072C164.52 96.6539 165.073 94.8639 166.18 92.9372C167.293 91.0105 168.72 89.3972 170.46 88.0972C172.2 86.8039 173.913 86.1572 175.6 86.1572C176.48 86.1572 177.22 86.3772 177.82 86.8172C178.42 87.2572 178.72 87.9905 178.72 89.0172C178.72 90.3905 178.193 91.6839 177.14 92.8972C176.08 94.1039 174.717 95.0939 173.05 95.8672C171.383 96.6339 169.68 97.1172 167.94 97.3172C167.88 97.6039 167.85 97.9339 167.85 98.3072C167.85 99.0472 168.057 99.7872 168.47 100.527C168.883 101.267 169.777 101.637 171.15 101.637C172.89 101.637 174.663 100.934 176.47 99.5272C178.283 98.1139 179.747 96.3505 180.86 94.2372L181.71 94.9272C180.57 97.4939 178.937 99.5605 176.81 101.127C174.69 102.694 172.49 103.477 170.21 103.477ZM168.41 95.7372C169.437 95.6239 170.583 95.2105 171.85 94.4972C173.123 93.7839 174.2 92.9072 175.08 91.8672C175.967 90.8272 176.41 89.8072 176.41 88.8072C176.41 88.4939 176.353 88.2805 176.24 88.1672C176.127 88.0539 175.94 87.9972 175.68 87.9972C174.853 87.9972 173.947 88.3872 172.96 89.1672C171.98 89.9539 171.077 90.9472 170.25 92.1472C169.423 93.3405 168.81 94.5372 168.41 95.7372Z"   fill="#343C3E" >
</path>
<defs>
<clipPath id="clip-path-2cgMESnp741_Yz3PPI2id">
<path d="M60.855 63.7972L120.855 63.7972L120.855 0L60.855 0L60.855 63.7972Z" fill="white"/>
</clipPath>
</defs>
</svg>
